<svg xmlns="http://www.w3.org/2000/svg" xmlns:svg="http://www.w3.org/2000/svg" width="600" height="562" viewBox="0 0 600 562" fill="none" version="1.1" id="svg109">
  <rect x="293.81345" y="39.559498" width="9" height="73" fill="url(#paint2_radial_339_4822)" id="rect2" style="fill:url(#paint2_radial_339_4822)"/>
  <circle cx="298.54105" cy="27.559498" r="13" fill="url(#paint3_radial_339_4822)" id="circle2" style="fill:url(#paint3_radial_339_4822)"/>
  <circle opacity="0.2" cx="292.54105" cy="22.559498" fill="#ffffff" id="circle3" r="5"/>
  <path d="m 178.1233,508.91409 c 1.50179,1.19547 17.36477,9.92165 25.1079,14.13626 l -19.61782,-6.96268 -36.48378,-22.58241 c -0.34532,-0.43821 -1.63084,-1.00568 -4.00855,0.2218 -2.97214,1.53434 -9.3953,8.85334 -23.38591,14.53621 -11.19249,4.5463 -24.582905,-0.96114 -29.878635,-4.28304 3.67255,-1.38292 12.319735,-5.2822 17.524805,-9.81686 6.50633,-5.66833 13.14979,-5.86467 24.38856,-2.89053 11.23876,2.97415 10.53959,0.10181 11.07242,-0.32723 0.53282,-0.42903 -3.95009,-4.11945 -6.75133,-7.44626 -2.241,-2.66145 -12.99908,-13.15094 -18.09798,-18.063 -0.5129,-1.01868 -2.00539,-2.93706 -3.8669,-2.46875 -2.3269,0.58537 -1.09489,3.02868 -17.299975,8.77698 -12.96408,4.59865 -22.77872,-1.8413 -26.06568,-5.6356 1.79555,-2.87718 7.46138,-9.27146 15.75998,-11.83112 10.37346,-3.2006 23.122775,4.99933 24.384005,5.27201 1.26124,0.27273 0.64524,-0.94896 0.44966,-2.07971 -0.1956,-1.13077 -14.255765,-21.58618 -14.984195,-22.2879 -0.72818,-0.70276 -2.29765,-1.58524 -4.73697,-0.47993 -2.4393,1.1053 -12.1426,9.34782 -24.588684,9.92229 -9.956855,0.45958 -18.944812,-7.36142 -22.194227,-11.32938 1.570727,-1.83733 6.422252,-5.6865 13.262193,-6.38459 8.550154,-0.87364 11.351184,2.45422 19.114228,5.22113 7.76304,2.76691 14.43573,0.39995 15.50139,-0.45812 1.06565,-0.85807 -1.45683,-1.40345 -5.09891,-4.91206 -2.91367,-2.80689 -21.137404,-29.78662 -29.88521,-42.9251 9.085046,11.57869 27.52373,35.12179 28.59926,36.66049 1.34443,1.92338 7.17174,7.53717 7.73381,4.93752 0.56206,-2.59965 -10.63565,-33.32086 -17.58079,-40.80903 -6.945134,-7.48819 -16.728844,-10.14774 -25.690122,-25.69108 -7.169021,-12.43468 -10.855634,-36.63384 -11.802856,-47.17908 7.857576,0.97287 25.863334,6.57148 35.026958,21.17895 11.45451,18.25934 8.35183,52.96375 8.82617,56.87595 0.3795,3.12975 6.54009,17.92172 9.57277,24.92753 -0.83753,-5.62342 -2.51252,-18.50295 -2.50889,-25.03298 0.004,-6.53003 2.94693,-23.12846 4.41787,-30.6104 1.80238,1.84062 5.792235,8.21852 7.333555,19.00106 1.92665,13.47818 -1.66603,21.9534 -3.577045,30.79221 -1.91101,8.8388 -4.04231,10.55494 3.320475,27.38538 5.89024,13.46436 23.18302,31.86051 31.0925,39.3765 0.1595,-1.41754 0.31073,-4.2867 -0.36194,-4.43214 -0.84082,-0.18182 -6.18926,-10.04591 -11.87039,-26.51278 -4.54493,-13.17348 -3.50776,-26.51918 -2.42118,-31.54482 1.28925,0.82298 5.37858,6.06099 11.42529,20.42997 6.04671,14.36896 6.39239,31.49565 5.80918,38.2639 0.2883,2.05751 2.05348,7.19248 6.80526,11.26757 4.7518,4.07508 22.65929,15.96448 31.01841,21.40074 -0.29846,-1.33477 -1.11868,-4.59575 -2.01436,-6.96633 -1.11959,-2.96324 -10.05617,-12.51467 -15.84972,-28.4616 -4.63485,-12.75754 -3.58138,-28.89382 -2.47511,-35.36612 2.61521,1.47211 8.98245,7.71095 13.52736,20.88444 4.54491,13.17349 4.81485,28.61518 4.3816,34.68985 1.92186,6.03855 6.13975,18.41641 7.64155,19.61189 z" fill="url(#paint0_linear_339_4822)" id="path1" style="fill:url(#paint0_linear_339_4822);stroke-width:0.956669"/>
  <path d="m 502.23235,219.60086 c 2.56752,0 8.5584,-12.666 11.2329,-19 0.71324,-2.833 5.88401,-16.4 20.86122,-47.9996 14.97721,-31.6 49.38916,-52.5 64.72293,-58.999998 -2.4962,9.499998 -11.12593,34.599998 -25.67521,58.999998 -18.18661,30.4996 -47.07122,50.4996 -56.16453,55.4996 -9.0933,5 -12.3027,15.5 -23.53561,34 -11.2329,18.5 -17.11681,55 -9.6282,55 7.4886,0 18.1865,-28 35.83831,-55 17.65182,-27 60.44362,-37.5 62.58323,-38 2.1396,-0.5 -11.23291,30.5 -31.02422,57 -19.79131,26.5 -57.23433,37 -65.79262,40 -8.55841,3 -10.69801,10.5 -19.25641,22.5 -8.55841,12 -16.04701,40.5 -23.00071,53.5 -6.9537,13 -2.6745,11 4.2792,9.5 6.9537,-1.5 15.51211,-18 36.37322,-44.5 20.861,-26.5 64.72282,-38 65.79262,-35.5 1.0698,2.5 -15.51211,32 -41.72222,55 -26.21,23 -58.83892,29 -62.58322,29.5 -3.7443,0.5 -13.90741,-1 -11.76781,-4.5 2.1396,-3.5 23.53561,-50.5 20.86111,-54.5 -2.6745,-4 -13.9074,-14.5 -20.86111,-47 -5.56296,-26 2.31826,-54.5 6.95371,-65.5 -0.17866,1.667 0.5349,6.7 4.8141,13.5 5.349,8.5 11.7678,24.5 16.04701,50 4.2792,25.5 -5.88391,40.5 -4.27921,43 1.60471,2.5 8.02351,-4.5 13.90741,-13 5.8839,-8.5 3.2094,-15 5.349,-32.5 2.1396,-17.5 18.18651,-41.5 19.79121,-54.5 1.6047,-13 -8.0234,-22.5 -11.7677,-50 -2.99544,-21.9996 3.7443,-53.4996 7.4886,-66.4996 1.78293,3.8333 6.31172,14.8 10.163,28 4.8141,16.5 3.7443,42.4996 0,56.9996 -3.7443,14.5 -3.2094,25 0,25 z" fill="url(#paint1_linear_339_4822)" id="path2" style="fill:url(#paint1_linear_339_4822);stroke-width:1.03431"/>
  <g filter="url(#filter0_i_339_4822)" id="g3" transform="translate(-57.835366,-25.486771)">
    <path d="m 131,303.171 c 0,-110.457 89.543,-200 200,-200 h 49 c 110.457,0 200,89.543 200,200 v 30 c 0,93.889 -76.112,170 -170,170 H 301 c -93.888,0 -170,-76.111 -170,-170 z" fill="url(#paint4_linear_339_4822)" id="path3" style="fill:url(#paint4_linear_339_4822)"/>
  </g>
  <rect opacity="0.5" x="90.164635" y="94.684227" width="418" height="355" rx="163" fill="url(#paint5_linear_339_4822)" id="rect3" style="fill:url(#paint5_linear_339_4822)"/>
  <rect x="90.164635" y="101.68423" width="418" height="350" rx="163" fill="url(#paint6_linear_339_4822)" id="rect4" style="fill:url(#paint6_linear_339_4822)"/>
  <g filter="url(#filter1_i_339_4822)" id="g5" transform="translate(-57.835366,-25.486771)">
    <rect x="178" y="181.17101" width="358" height="236" rx="90" fill="url(#paint7_linear_339_4822)" id="rect5" style="fill:url(#paint7_linear_339_4822)"/>
  </g>
  <g filter="url(#filter2_ii_339_4822)" id="g6" transform="translate(-57.835366,-25.486771)">
    <rect x="182" y="185.17101" width="350" height="228" rx="90" fill="url(#paint8_linear_339_4822)" id="rect6" style="fill:url(#paint8_linear_339_4822)"/>
  </g>
  <rect x="140.16463" y="175.68423" width="318" height="196" rx="78" fill="url(#paint9_linear_339_4822)" id="rect7" style="fill:url(#paint9_linear_339_4822)"/>
  <path d="m 140.16463,261.68423 c 0,-43.078 34.922,-78 78,-78 h 180 c 33.137,0 60,26.863 60,60 v 50 c 0,43.079 -34.922,78 -78,78 h -162 c -43.078,0 -78,-34.921 -78,-78 z" fill="url(#paint10_linear_339_4822)" id="path7" style="fill:url(#paint10_linear_339_4822)"/>
  <g filter="url(#filter3_d_339_4822)" id="g7" transform="translate(-57.835366,-25.486771)">
    <circle cx="278" cy="281.17099" r="30" fill="#ffffff" id="circle7"/>
  </g>
  <g filter="url(#filter4_d_339_4822)" id="g8" transform="translate(-57.835366,-25.486771)">
    <circle cx="436" cy="281.17099" r="30" fill="#ffffff" id="circle8"/>
  </g>
  <g filter="url(#filter5_d_339_4822)" id="g9" transform="translate(-57.835366,-25.486771)">
    <path d="m 306,337.671 c 11.315,16.031 29.983,26.5 51.097,26.5 21.114,0 39.782,-10.469 51.097,-26.5" stroke="#ffffff" stroke-width="20" stroke-linecap="round" stroke-linejoin="round" id="path8"/>
  </g>
  <g filter="url(#filter6_i_339_4822)" id="g11" transform="translate(-57.835366,-25.486771)">
    <path d="m 570,392.671 v -154.5 c 9.833,7.834 29.5,34.1 29.5,76.5 0,42.4 -19.667,69.667 -29.5,78 z" fill="url(#paint11_radial_339_4822)" id="path11" style="fill:url(#paint11_radial_339_4822)"/>
  </g>
  <path opacity="0.56" d="m 512.16463,367.18423 v -154.5 c 9.833,7.834 29.5,34.1 29.5,76.5 0,42.4 -19.667,69.667 -29.5,78 z" fill="url(#paint12_linear_339_4822)" id="path12" style="fill:url(#paint12_linear_339_4822)"/>
  <g filter="url(#filter7_i_339_4822)" id="g13" transform="translate(-57.835366,-25.486771)">
    <path d="m 143.5,392.671 v -154.5 c -9.833,7.834 -29.5,34.1 -29.5,76.5 0,42.4 19.667,69.667 29.5,78 z" fill="url(#paint13_radial_339_4822)" id="path13" style="fill:url(#paint13_radial_339_4822)"/>
  </g>
  <path opacity="0.56" d="m 85.664634,367.18423 v -154.5 c -9.833,7.834 -29.5,34.1 -29.5,76.5 0,42.4 19.667,69.667 29.5,78 z" fill="url(#paint14_linear_339_4822)" id="path14" style="fill:url(#paint14_linear_339_4822)"/>
  <path d="m 198.16463,512.68423 c 0,-4.418 3.582,-8 8,-8 h 183 c 4.418,0 8,3.582 8,8 v 7 c 0,8.837 -7.163,16 -16,16 h -167 c -8.837,0 -16,-7.163 -16,-16 z" fill="url(#paint15_linear_339_4822)" id="path15" style="fill:url(#paint15_linear_339_4822)"/>
  <path d="m 198.16463,512.68423 c 0,-4.418 3.582,-8 8,-8 h 183 c 4.418,0 8,3.582 8,8 v 7 c 0,8.837 -7.163,16 -16,16 h -167 c -8.837,0 -16,-7.163 -16,-16 z" fill="url(#paint16_linear_339_4822)" id="path16" style="fill:url(#paint16_linear_339_4822)"/>
  <path d="m 243.16463,483.35123 c 0,1.841 1.492,3.333 3.333,3.333 h 103.334 c 1.841,0 3.333,-1.492 3.333,-3.333 0,-3.682 -2.985,-6.667 -6.667,-6.667 h -96.666 c -3.682,0 -6.667,2.985 -6.667,6.667 z" fill="url(#paint17_linear_339_4822)" id="path17" style="fill:url(#paint17_linear_339_4822)"/>
  <path d="m 243.16463,483.35123 c 0,1.841 1.492,3.333 3.333,3.333 h 103.334 c 1.841,0 3.333,-1.492 3.333,-3.333 0,-3.682 -2.985,-6.667 -6.667,-6.667 h -96.666 c -3.682,0 -6.667,2.985 -6.667,6.667 z" fill="url(#paint18_linear_339_4822)" id="path18" style="fill:url(#paint18_linear_339_4822)"/>
  <path d="m 198.16463,512.68423 h 199 v 7 c 0,8.837 -7.163,16 -16,16 h -167 c -8.837,0 -16,-7.163 -16,-16 z" fill="url(#paint19_radial_339_4822)" id="path19" style="fill:url(#paint19_radial_339_4822)"/>
  <path d="m 198.16463,512.68423 h 199 v 7 c 0,8.837 -7.163,16 -16,16 h -167 c -8.837,0 -16,-7.163 -16,-16 z" fill="url(#paint20_radial_339_4822)" id="path20" style="fill:url(#paint20_radial_339_4822)"/>
  <path d="m 229.16463,469.68423 h 138 c 0,3.866 -3.134,7 -7,7 h -124 c -3.866,0 -7,-3.134 -7,-7 z" fill="url(#paint21_radial_339_4822)" id="path21" style="fill:url(#paint21_radial_339_4822)"/>
  <path d="m 229.16463,469.68423 h 138 c 0,3.866 -3.134,7 -7,7 h -124 c -3.866,0 -7,-3.134 -7,-7 z" fill="url(#paint22_radial_339_4822)" id="path22" style="fill:url(#paint22_radial_339_4822)"/>
  <path d="m 243.16463,483.68423 h 110 c 0,-3.866 -3.134,-7 -7,-7 h -96 c -3.866,0 -7,3.134 -7,7 z" fill="url(#paint23_radial_339_4822)" id="path23" style="fill:url(#paint23_radial_339_4822)"/>
  <path d="m 243.16463,483.68423 h 110 c 0,-3.866 -3.134,-7 -7,-7 h -96 c -3.866,0 -7,3.134 -7,7 z" fill="url(#paint24_radial_339_4822)" id="path24" style="fill:url(#paint24_radial_339_4822)"/>
  <path d="m 247.50024,79.483678 h 101.60519 c 0,-2.181616 -2.89483,-3.950158 -6.46578,-3.950158 h -88.67363 c -3.57095,0 -6.46578,1.768542 -6.46578,3.950158 z" fill="url(#paint24_radial_339_4822)" id="path24-3" style="fill:url(#paint24_radial_339_4822-0);stroke-width:0.721972"/>
  <path d="m 232.16463,504.68423 h 131 c 0,-4.97 -4.029,-9 -9,-9 h -113 c -4.971,0 -9,4.03 -9,9 z" fill="url(#paint25_radial_339_4822)" id="path25" style="fill:url(#paint25_radial_339_4822)"/>
  <path d="m 232.16463,504.68423 h 131 c 0,-4.97 -4.029,-9 -9,-9 h -113 c -4.971,0 -9,4.03 -9,9 z" fill="url(#paint26_radial_339_4822)" id="path26" style="fill:url(#paint26_radial_339_4822)"/>
  <path d="m 251.56163,486.68423 h 93.206 l 8.397,9 h -110 z" fill="url(#paint27_radial_339_4822)" id="path27" style="fill:url(#paint27_radial_339_4822)"/>
  <path d="m 251.56163,486.68423 h 93.206 l 8.397,9 h -110 z" fill="url(#paint28_radial_339_4822)" id="path28" style="fill:url(#paint28_radial_339_4822)"/>
  <line x1="220.16463" y1="469.1842" x2="375.16464" y2="469.1842" stroke="#0f1b2e" id="line28"/>
  <line x1="220.16463" y1="469.1842" x2="375.16464" y2="469.1842" stroke="#0f1b2e" id="line29"/>
  <defs id="defs109">
    <filter id="filter0_i_339_4822" x="131" y="103.171" width="449" height="404" filterUnits="userSpaceOnUse" color-interpolation-filters="sRGB">
      <feFlood flood-opacity="0" result="BackgroundImageFix" id="feFlood29"/>
      <feBlend mode="normal" in="SourceGraphic" in2="BackgroundImageFix" result="shape" id="feBlend29"/>
      <feColorMatrix in="SourceAlpha" type="matrix" values="0 0 0 0 0 0 0 0 0 0 0 0 0 0 0 0 0 0 127 0" result="hardAlpha" id="feColorMatrix29"/>
      <feOffset dy="4" id="feOffset29"/>
      <feGaussianBlur stdDeviation="25" id="feGaussianBlur29"/>
      <feComposite in2="hardAlpha" operator="arithmetic" k2="-1" k3="1" id="feComposite29" k1="0" k4="0"/>
      <feColorMatrix type="matrix" values="0 0 0 0 0 0 0 0 0 0 0 0 0 0 0 0 0 0 0.25 0" id="feColorMatrix30"/>
      <feBlend mode="normal" in2="shape" result="effect1_innerShadow_339_4822" id="feBlend30"/>
    </filter>
    <filter id="filter1_i_339_4822" x="178" y="181.17101" width="358" height="240" filterUnits="userSpaceOnUse" color-interpolation-filters="sRGB">
      <feFlood flood-opacity="0" result="BackgroundImageFix" id="feFlood30"/>
      <feBlend mode="normal" in="SourceGraphic" in2="BackgroundImageFix" result="shape" id="feBlend31"/>
      <feColorMatrix in="SourceAlpha" type="matrix" values="0 0 0 0 0 0 0 0 0 0 0 0 0 0 0 0 0 0 127 0" result="hardAlpha" id="feColorMatrix31"/>
      <feOffset dy="4" id="feOffset31"/>
      <feGaussianBlur stdDeviation="12.5" id="feGaussianBlur31"/>
      <feComposite in2="hardAlpha" operator="arithmetic" k2="-1" k3="1" id="feComposite31" k1="0" k4="0"/>
      <feColorMatrix type="matrix" values="0 0 0 0 0 0 0 0 0 0 0 0 0 0 0 0 0 0 0.25 0" id="feColorMatrix32"/>
      <feBlend mode="normal" in2="shape" result="effect1_innerShadow_339_4822" id="feBlend32"/>
    </filter>
    <filter id="filter2_ii_339_4822" x="182" y="185.17101" width="350" height="232" filterUnits="userSpaceOnUse" color-interpolation-filters="sRGB">
      <feFlood flood-opacity="0" result="BackgroundImageFix" id="feFlood32"/>
      <feBlend mode="normal" in="SourceGraphic" in2="BackgroundImageFix" result="shape" id="feBlend33"/>
      <feColorMatrix in="SourceAlpha" type="matrix" values="0 0 0 0 0 0 0 0 0 0 0 0 0 0 0 0 0 0 127 0" result="hardAlpha" id="feColorMatrix33"/>
      <feOffset dy="4" id="feOffset33"/>
      <feComposite in2="hardAlpha" operator="arithmetic" k2="-1" k3="1" id="feComposite33" k1="0" k4="0"/>
      <feColorMatrix type="matrix" values="0 0 0 0 0 0 0 0 0 0 0 0 0 0 0 0 0 0 0.5 0" id="feColorMatrix34"/>
      <feBlend mode="normal" in2="shape" result="effect1_innerShadow_339_4822" id="feBlend34"/>
      <feColorMatrix in="SourceAlpha" type="matrix" values="0 0 0 0 0 0 0 0 0 0 0 0 0 0 0 0 0 0 127 0" result="hardAlpha" id="feColorMatrix35"/>
      <feOffset dy="4" id="feOffset35"/>
      <feGaussianBlur stdDeviation="12.5" id="feGaussianBlur35"/>
      <feComposite in2="hardAlpha" operator="arithmetic" k2="-1" k3="1" id="feComposite35" k1="0" k4="0"/>
      <feColorMatrix type="matrix" values="0 0 0 0 0 0 0 0 0 0 0 0 0 0 0 0 0 0 0.25 0" id="feColorMatrix36"/>
      <feBlend mode="normal" in2="effect1_innerShadow_339_4822" result="effect2_innerShadow_339_4822" id="feBlend36"/>
    </filter>
    <filter id="filter3_d_339_4822" x="244" y="251.17101" width="68" height="68" filterUnits="userSpaceOnUse" color-interpolation-filters="sRGB">
      <feFlood flood-opacity="0" result="BackgroundImageFix" id="feFlood36"/>
      <feColorMatrix in="SourceAlpha" type="matrix" values="0 0 0 0 0 0 0 0 0 0 0 0 0 0 0 0 0 0 127 0" result="hardAlpha" id="feColorMatrix37"/>
      <feOffset dy="4" id="feOffset37"/>
      <feGaussianBlur stdDeviation="2" id="feGaussianBlur37"/>
      <feComposite in2="hardAlpha" operator="out" id="feComposite37"/>
      <feColorMatrix type="matrix" values="0 0 0 0 0 0 0 0 0 0 0 0 0 0 0 0 0 0 0.25 0" id="feColorMatrix38"/>
      <feBlend mode="normal" in2="BackgroundImageFix" result="effect1_dropShadow_339_4822" id="feBlend38"/>
      <feBlend mode="normal" in="SourceGraphic" in2="effect1_dropShadow_339_4822" result="shape" id="feBlend39"/>
    </filter>
    <filter id="filter4_d_339_4822" x="402" y="251.17101" width="68" height="68" filterUnits="userSpaceOnUse" color-interpolation-filters="sRGB">
      <feFlood flood-opacity="0" result="BackgroundImageFix" id="feFlood39"/>
      <feColorMatrix in="SourceAlpha" type="matrix" values="0 0 0 0 0 0 0 0 0 0 0 0 0 0 0 0 0 0 127 0" result="hardAlpha" id="feColorMatrix39"/>
      <feOffset dy="4" id="feOffset39"/>
      <feGaussianBlur stdDeviation="2" id="feGaussianBlur39"/>
      <feComposite in2="hardAlpha" operator="out" id="feComposite39"/>
      <feColorMatrix type="matrix" values="0 0 0 0 0 0 0 0 0 0 0 0 0 0 0 0 0 0 0.25 0" id="feColorMatrix40"/>
      <feBlend mode="normal" in2="BackgroundImageFix" result="effect1_dropShadow_339_4822" id="feBlend40"/>
      <feBlend mode="normal" in="SourceGraphic" in2="effect1_dropShadow_339_4822" result="shape" id="feBlend41"/>
    </filter>
    <filter id="filter5_d_339_4822" x="291.99899" y="327.67099" width="130.196" height="54.500702" filterUnits="userSpaceOnUse" color-interpolation-filters="sRGB">
      <feFlood flood-opacity="0" result="BackgroundImageFix" id="feFlood41"/>
      <feColorMatrix in="SourceAlpha" type="matrix" values="0 0 0 0 0 0 0 0 0 0 0 0 0 0 0 0 0 0 127 0" result="hardAlpha" id="feColorMatrix41"/>
      <feOffset dy="4" id="feOffset41"/>
      <feGaussianBlur stdDeviation="2" id="feGaussianBlur41"/>
      <feComposite in2="hardAlpha" operator="out" id="feComposite41"/>
      <feColorMatrix type="matrix" values="0 0 0 0 0 0 0 0 0 0 0 0 0 0 0 0 0 0 0.25 0" id="feColorMatrix42"/>
      <feBlend mode="normal" in2="BackgroundImageFix" result="effect1_dropShadow_339_4822" id="feBlend42"/>
      <feBlend mode="normal" in="SourceGraphic" in2="effect1_dropShadow_339_4822" result="shape" id="feBlend43"/>
    </filter>
    <filter id="filter6_i_339_4822" x="570" y="238.17101" width="29.5" height="154.5" filterUnits="userSpaceOnUse" color-interpolation-filters="sRGB">
      <feFlood flood-opacity="0" result="BackgroundImageFix" id="feFlood43"/>
      <feBlend mode="normal" in="SourceGraphic" in2="BackgroundImageFix" result="shape" id="feBlend44"/>
      <feColorMatrix in="SourceAlpha" type="matrix" values="0 0 0 0 0 0 0 0 0 0 0 0 0 0 0 0 0 0 127 0" result="hardAlpha" id="feColorMatrix44"/>
      <feOffset dx="4" id="feOffset44"/>
      <feComposite in2="hardAlpha" operator="arithmetic" k2="-1" k3="1" id="feComposite44" k1="0" k4="0"/>
      <feColorMatrix type="matrix" values="0 0 0 0 0.0784314 0 0 0 0 0.156863 0 0 0 0 0.254902 0 0 0 1 0" id="feColorMatrix45"/>
      <feBlend mode="normal" in2="shape" result="effect1_innerShadow_339_4822" id="feBlend45"/>
    </filter>
    <filter id="filter7_i_339_4822" x="114" y="238.17101" width="29.5" height="154.5" filterUnits="userSpaceOnUse" color-interpolation-filters="sRGB">
      <feFlood flood-opacity="0" result="BackgroundImageFix" id="feFlood45"/>
      <feBlend mode="normal" in="SourceGraphic" in2="BackgroundImageFix" result="shape" id="feBlend46"/>
      <feColorMatrix in="SourceAlpha" type="matrix" values="0 0 0 0 0 0 0 0 0 0 0 0 0 0 0 0 0 0 127 0" result="hardAlpha" id="feColorMatrix46"/>
      <feOffset dx="-4" id="feOffset46"/>
      <feComposite in2="hardAlpha" operator="arithmetic" k2="-1" k3="1" id="feComposite46" k1="0" k4="0"/>
      <feColorMatrix type="matrix" values="0 0 0 0 0.0784314 0 0 0 0 0.156863 0 0 0 0 0.254902 0 0 0 1 0" id="feColorMatrix47"/>
      <feBlend mode="normal" in2="shape" result="effect1_innerShadow_339_4822" id="feBlend47"/>
    </filter>
    <linearGradient id="paint0_linear_339_4822" x1="136.25" y1="329.17099" x2="136.25" y2="497.953" gradientUnits="userSpaceOnUse" gradientTransform="matrix(0.84082826,0.1817935,-0.22482558,1.0398595,98.744415,-33.762963)">
      <stop stop-color="#FFD931" id="stop47"/>
      <stop offset="1" stop-color="#DD9518" id="stop48"/>
    </linearGradient>
    <linearGradient id="paint1_linear_339_4822" x1="78.144302" y1="32.171398" x2="78.144302" y2="329.76501" gradientUnits="userSpaceOnUse" gradientTransform="matrix(-1.0698005,0,0,1,599.0494,61.429862)">
      <stop stop-color="#E1FF71" id="stop49"/>
      <stop offset="1" stop-color="#146452" id="stop50"/>
    </linearGradient>
    <radialGradient id="paint2_radial_339_4822" cx="0" cy="0" r="1" gradientUnits="userSpaceOnUse" gradientTransform="matrix(8,0,0,42.875,294.81335,76.559502)">
      <stop stop-color="#547386" id="stop51"/>
      <stop offset="1" stop-color="#1F303D" id="stop52" style="stop-color:#41607d;stop-opacity:1;"/>
    </radialGradient>
    <radialGradient id="paint3_radial_339_4822" cx="0" cy="0" r="1" gradientUnits="userSpaceOnUse" gradientTransform="matrix(11.500015,12.000027,-12.000027,11.500015,291.54097,22.559501)">
      <stop stop-color="#3E6A83" id="stop53" offset="0" style="stop-color:#77a4bf;stop-opacity:1;"/>
      <stop offset="1" stop-color="#142033" id="stop54" style="stop-color:#3b486e;stop-opacity:1;"/>
    </radialGradient>
    <linearGradient id="paint4_linear_339_4822" x1="355.5" y1="103.171" x2="355.5" y2="503.17099" gradientUnits="userSpaceOnUse">
      <stop stop-color="#E6EAF1" id="stop55"/>
      <stop offset="1" stop-color="#95ABC3" id="stop56"/>
    </linearGradient>
    <linearGradient id="paint5_linear_339_4822" x1="357" y1="120.171" x2="357" y2="475.17099" gradientUnits="userSpaceOnUse" gradientTransform="translate(-57.835366,-25.486771)">
      <stop stop-color="#F5FAFF" id="stop57"/>
      <stop offset="1" stop-color="white" stop-opacity="0" id="stop58"/>
    </linearGradient>
    <linearGradient id="paint6_linear_339_4822" x1="243" y1="175.17101" x2="241" y2="449.67099" gradientUnits="userSpaceOnUse" gradientTransform="translate(-57.835366,-25.486771)">
      <stop stop-color="#DFE6EB" id="stop59"/>
      <stop offset="1" stop-color="white" stop-opacity="0" id="stop60"/>
    </linearGradient>
    <linearGradient id="paint7_linear_339_4822" x1="357" y1="181.17101" x2="357" y2="417.17099" gradientUnits="userSpaceOnUse">
      <stop stop-color="#BECCD7" id="stop61"/>
      <stop offset="1" stop-color="white" id="stop62"/>
    </linearGradient>
    <linearGradient id="paint8_linear_339_4822" x1="357" y1="185.17101" x2="357" y2="413.17099" gradientUnits="userSpaceOnUse">
      <stop stop-color="#00F6C8" id="stop63"/>
      <stop offset="1" stop-color="#007B7B" id="stop64"/>
    </linearGradient>
    <linearGradient id="paint9_linear_339_4822" x1="335.5" y1="201.17101" x2="511.53299" y2="296.427" gradientUnits="userSpaceOnUse" gradientTransform="translate(-57.835366,-25.486771)">
      <stop stop-color="#86FFE2" id="stop65"/>
      <stop offset="0.998142" stop-color="#00D5A4" id="stop66"/>
    </linearGradient>
    <linearGradient id="paint10_linear_339_4822" x1="331.56" y1="203.896" x2="429.77899" y2="418.98901" gradientUnits="userSpaceOnUse" gradientTransform="translate(-57.835366,-25.486771)">
      <stop stop-color="#00F9C6" id="stop67"/>
      <stop offset="0.511904" stop-color="#00BBA0" id="stop68"/>
      <stop offset="0.998142" stop-color="#00817B" id="stop69"/>
    </linearGradient>
    <radialGradient id="paint11_radial_339_4822" cx="0" cy="0" r="1" gradientUnits="userSpaceOnUse" gradientTransform="matrix(0,78.5,-14.9887,0,585,261.671)">
      <stop stop-color="#8AB2C9" id="stop70"/>
      <stop offset="1" stop-color="#103444" id="stop71"/>
    </radialGradient>
    <linearGradient id="paint12_linear_339_4822" x1="585" y1="246.67101" x2="585" y2="388.67099" gradientUnits="userSpaceOnUse" gradientTransform="translate(-57.835366,-25.486771)">
      <stop stop-color="#8AB2C9" id="stop72"/>
      <stop offset="1" stop-color="#103444" id="stop73"/>
    </linearGradient>
    <radialGradient id="paint13_radial_339_4822" cx="0" cy="0" r="1" gradientUnits="userSpaceOnUse" gradientTransform="matrix(0,78.5,-14.9887,0,128.5,261.671)">
      <stop stop-color="#8AB2C9" id="stop74"/>
      <stop offset="1" stop-color="#103444" id="stop75"/>
    </radialGradient>
    <linearGradient id="paint14_linear_339_4822" x1="128.5" y1="246.67101" x2="128.5" y2="388.67099" gradientUnits="userSpaceOnUse" gradientTransform="translate(-57.835366,-25.486771)">
      <stop stop-color="#8AB2C9" id="stop76"/>
      <stop offset="1" stop-color="#103444" id="stop77"/>
    </linearGradient>
    <linearGradient id="paint15_linear_339_4822" x1="256" y1="533.17102" x2="455" y2="537.17102" gradientUnits="userSpaceOnUse" gradientTransform="translate(-57.835366,-25.486771)">
      <stop stop-color="#909BB0" id="stop78"/>
      <stop offset="0.527978" stop-color="#BECDDA" id="stop79"/>
      <stop offset="1" stop-color="#2A3E56" id="stop80"/>
    </linearGradient>
    <linearGradient id="paint16_linear_339_4822" x1="256" y1="533.17102" x2="455" y2="537.17102" gradientUnits="userSpaceOnUse" gradientTransform="translate(-57.835366,-25.486771)">
      <stop stop-color="#909BB0" id="stop81"/>
      <stop offset="0.527978" stop-color="#BECDDA" id="stop82"/>
      <stop offset="1" stop-color="#2A3E56" id="stop83"/>
    </linearGradient>
    <linearGradient id="paint17_linear_339_4822" x1="301" y1="511.20401" x2="410.914" y2="507.418" gradientUnits="userSpaceOnUse" gradientTransform="translate(-57.835366,-25.486771)">
      <stop stop-color="#57708A" id="stop84"/>
      <stop offset="0.527978" stop-color="#384B64" id="stop85"/>
      <stop offset="1" stop-color="#0A1423" id="stop86"/>
    </linearGradient>
    <linearGradient id="paint18_linear_339_4822" x1="301" y1="511.20401" x2="410.914" y2="507.418" gradientUnits="userSpaceOnUse" gradientTransform="translate(-57.835366,-25.486771)">
      <stop stop-color="#57708A" id="stop87"/>
      <stop offset="0.527978" stop-color="#384B64" id="stop88"/>
      <stop offset="1" stop-color="#0A1423" id="stop89"/>
    </linearGradient>
    <radialGradient id="paint19_radial_339_4822" cx="0" cy="0" r="1" gradientUnits="userSpaceOnUse" gradientTransform="matrix(0,20.5,-131.386,0,298.16463,512.68423)">
      <stop stop-color="#AEC5D6" id="stop90"/>
      <stop offset="1" stop-color="#162942" id="stop91"/>
    </radialGradient>
    <radialGradient id="paint20_radial_339_4822" cx="0" cy="0" r="1" gradientUnits="userSpaceOnUse" gradientTransform="matrix(0,20.5,-131.386,0,298.16463,512.68423)">
      <stop stop-color="#AEC5D6" id="stop92"/>
      <stop offset="1" stop-color="#162942" id="stop93"/>
    </radialGradient>
    <radialGradient id="paint21_radial_339_4822" cx="0" cy="0" r="1" gradientUnits="userSpaceOnUse" gradientTransform="matrix(0,6.23913,-91.1118,0,298.51163,469.68423)">
      <stop stop-color="#345268" id="stop94"/>
      <stop offset="1" stop-color="#162942" id="stop95"/>
    </radialGradient>
    <radialGradient id="paint22_radial_339_4822" cx="0" cy="0" r="1" gradientUnits="userSpaceOnUse" gradientTransform="matrix(0,6.23913,-91.1118,0,298.51163,469.68423)">
      <stop stop-color="#345268" id="stop96"/>
      <stop offset="1" stop-color="#162942" id="stop97"/>
    </radialGradient>
    <radialGradient id="paint23_radial_339_4822" cx="0" cy="0" r="1" gradientUnits="userSpaceOnUse" gradientTransform="matrix(0,-6.23913,72.6253,0,298.44063,483.68423)">
      <stop stop-color="#1D3350" id="stop98"/>
      <stop offset="1" stop-color="#162942" id="stop99"/>
    </radialGradient>
    <radialGradient id="paint24_radial_339_4822" cx="0" cy="0" r="1" gradientUnits="userSpaceOnUse" gradientTransform="matrix(0,-6.23913,72.6253,0,298.44063,483.68423)">
      <stop stop-color="#1D3350" id="stop100"/>
      <stop offset="1" stop-color="#162942" id="stop101"/>
    </radialGradient>
    <radialGradient id="paint25_radial_339_4822" cx="0" cy="0" r="1" gradientUnits="userSpaceOnUse" gradientTransform="matrix(91.49999,4.9999897,-53.909739,986.55016,243.66463,499.68423)">
      <stop stop-color="#76849C" id="stop102"/>
      <stop offset="1" stop-color="#294361" id="stop103"/>
    </radialGradient>
    <radialGradient id="paint26_radial_339_4822" cx="0" cy="0" r="1" gradientUnits="userSpaceOnUse" gradientTransform="matrix(91.49999,4.9999897,-53.909739,986.55016,243.66463,499.68423)">
      <stop stop-color="#76849C" id="stop104"/>
      <stop offset="1" stop-color="#294361" id="stop105"/>
    </radialGradient>
    <radialGradient id="paint27_radial_339_4822" cx="0" cy="0" r="1" gradientUnits="userSpaceOnUse" gradientTransform="matrix(76.83208,-4.9999916,64.121792,985.32378,252.82063,491.68423)">
      <stop stop-color="#122340" id="stop106"/>
      <stop offset="1" stop-color="#0F1B2E" id="stop107"/>
    </radialGradient>
    <radialGradient id="paint28_radial_339_4822" cx="0" cy="0" r="1" gradientUnits="userSpaceOnUse" gradientTransform="matrix(76.83208,-4.9999916,64.121792,985.32378,252.82063,491.68423)">
      <stop stop-color="#122340" id="stop108"/>
      <stop offset="1" stop-color="#0F1B2E" id="stop109"/>
    </radialGradient>
    <radialGradient id="paint24_radial_339_4822-0" cx="0" cy="0" r="1" gradientUnits="userSpaceOnUse" gradientTransform="matrix(0,-3.5207932,67.082794,0,298.55777,79.483678)">
      <stop stop-color="#1D3350" id="stop100-5"/>
      <stop offset="1" stop-color="#162942" id="stop101-6" style="stop-color:#adb3b8;stop-opacity:1;"/>
    </radialGradient>
  </defs>
</svg>
