<svg style="fill-rule:evenodd;clip-rule:evenodd;stroke-linejoin:round;stroke-miterlimit:2;" xml:space="preserve" xmlns:xlink="http://www.w3.org/1999/xlink" xmlns="http://www.w3.org/2000/svg" version="1.1" viewBox="0 0 2481 864" height="100%" width="100%">
    <g transform="matrix(1,0,0,0.246267,0,0)" id="Artboard1">
        <rect style="fill:none;" height="3507.874" width="2480.315" y="0" x="0"></rect>
        <g transform="matrix(1.596197,0,0,6.481568,-513.540606,-48.050214)">
            <g transform="matrix(1.009477,0,0,1,-3.626433,0)">
                <g transform="matrix(301.967503,0,0,301.967503,382.658508,270.061017)">
                    <path style="fill:rgb(51,51,51);fill-rule:nonzero;" d="M0.235,0.01C0.198,0.01 0.163,0.005 0.128,-0.005C0.092,-0.014 0.059,-0.029 0.026,-0.048L0.082,-0.171C0.115,-0.152 0.145,-0.139 0.173,-0.13C0.2,-0.121 0.222,-0.117 0.238,-0.117C0.253,-0.117 0.265,-0.119 0.272,-0.123C0.279,-0.127 0.282,-0.132 0.282,-0.138C0.282,-0.144 0.279,-0.149 0.273,-0.152C0.266,-0.156 0.255,-0.159 0.24,-0.162L0.195,-0.17C0.143,-0.179 0.104,-0.195 0.079,-0.217C0.054,-0.24 0.041,-0.27 0.041,-0.309C0.041,-0.34 0.048,-0.369 0.063,-0.395C0.078,-0.42 0.101,-0.441 0.132,-0.457C0.163,-0.472 0.204,-0.48 0.255,-0.48C0.289,-0.48 0.322,-0.476 0.355,-0.467C0.388,-0.458 0.419,-0.446 0.449,-0.43L0.396,-0.313C0.374,-0.323 0.351,-0.332 0.326,-0.341C0.301,-0.349 0.28,-0.353 0.262,-0.353C0.249,-0.353 0.24,-0.351 0.233,-0.349C0.226,-0.346 0.223,-0.341 0.223,-0.335C0.223,-0.331 0.225,-0.328 0.23,-0.325C0.235,-0.322 0.245,-0.319 0.26,-0.316L0.305,-0.308C0.357,-0.299 0.397,-0.282 0.423,-0.257C0.451,-0.232 0.464,-0.2 0.464,-0.161C0.464,-0.112 0.445,-0.071 0.407,-0.038C0.368,-0.006 0.311,0.01 0.235,0.01Z"></path>
                </g>
                <g transform="matrix(301.967503,0,0,301.967503,536.359968,270.061017)">
                    <path style="fill:rgb(51,51,51);fill-rule:nonzero;" d="M0.295,0.01C0.243,0.01 0.197,-0 0.156,-0.021C0.116,-0.041 0.084,-0.07 0.061,-0.106C0.038,-0.143 0.026,-0.186 0.026,-0.235C0.026,-0.284 0.038,-0.326 0.061,-0.363C0.084,-0.4 0.116,-0.428 0.156,-0.449C0.197,-0.47 0.243,-0.48 0.295,-0.48C0.347,-0.48 0.393,-0.47 0.433,-0.449C0.474,-0.428 0.506,-0.4 0.529,-0.363C0.552,-0.326 0.564,-0.284 0.564,-0.235C0.564,-0.186 0.552,-0.143 0.529,-0.106C0.506,-0.07 0.474,-0.041 0.433,-0.021C0.393,-0 0.347,0.01 0.295,0.01ZM0.295,-0.144C0.312,-0.144 0.328,-0.148 0.341,-0.155C0.354,-0.162 0.364,-0.173 0.371,-0.186C0.378,-0.2 0.382,-0.216 0.382,-0.235C0.382,-0.254 0.378,-0.27 0.371,-0.283C0.364,-0.297 0.354,-0.308 0.341,-0.315C0.328,-0.322 0.312,-0.326 0.295,-0.326C0.278,-0.326 0.263,-0.322 0.25,-0.315C0.237,-0.308 0.226,-0.297 0.219,-0.284C0.212,-0.27 0.208,-0.254 0.208,-0.235C0.208,-0.216 0.212,-0.2 0.219,-0.187C0.226,-0.173 0.237,-0.162 0.25,-0.155C0.263,-0.148 0.279,-0.144 0.295,-0.144Z"></path>
                </g>
                <g transform="matrix(301.967503,0,0,301.967503,720.258177,270.061017)">
                    <path style="fill:rgb(51,51,51);fill-rule:nonzero;" d="M0.216,0.01C0.164,0.01 0.123,-0.005 0.092,-0.035C0.061,-0.065 0.046,-0.111 0.046,-0.174L0.046,-0.47L0.226,-0.47L0.226,-0.203C0.226,-0.184 0.23,-0.17 0.238,-0.16C0.246,-0.149 0.258,-0.144 0.275,-0.144C0.294,-0.144 0.311,-0.15 0.324,-0.163C0.337,-0.175 0.344,-0.195 0.344,-0.223L0.344,-0.47L0.524,-0.47L0.524,-0L0.354,-0L0.354,-0.046C0.339,-0.029 0.321,-0.015 0.298,-0.005C0.276,0.005 0.249,0.01 0.216,0.01Z"></path>
                </g>
                <g transform="matrix(301.967503,0,0,301.967503,898.117036,270.061017)">
                    <path style="fill:rgb(51,51,51);fill-rule:nonzero;" d="M0.046,-0L0.046,-0.47L0.216,-0.47L0.216,-0.424C0.231,-0.441 0.249,-0.455 0.272,-0.465C0.294,-0.475 0.321,-0.48 0.354,-0.48C0.406,-0.48 0.447,-0.465 0.478,-0.435C0.509,-0.405 0.524,-0.359 0.524,-0.296L0.524,-0L0.344,-0L0.344,-0.267C0.344,-0.286 0.34,-0.3 0.332,-0.31C0.324,-0.321 0.312,-0.326 0.295,-0.326C0.276,-0.326 0.259,-0.32 0.246,-0.307C0.233,-0.295 0.226,-0.275 0.226,-0.247L0.226,-0L0.046,-0Z"></path>
                </g>
                <g transform="matrix(301.967503,0,0,301.967503,1075.975896,270.061017)">
                    <path style="fill:rgb(51,51,51);fill-rule:nonzero;" d="M0.251,0.01C0.21,0.01 0.172,0 0.138,-0.019C0.103,-0.038 0.076,-0.066 0.056,-0.103C0.036,-0.14 0.026,-0.184 0.026,-0.235C0.026,-0.287 0.036,-0.331 0.056,-0.367C0.076,-0.404 0.103,-0.432 0.138,-0.451C0.172,-0.47 0.21,-0.48 0.251,-0.48C0.278,-0.48 0.301,-0.476 0.322,-0.468C0.343,-0.46 0.36,-0.449 0.374,-0.435L0.374,-0.668L0.554,-0.668L0.554,-0L0.384,-0L0.384,-0.046C0.369,-0.029 0.351,-0.015 0.329,-0.005C0.307,0.005 0.281,0.01 0.251,0.01ZM0.295,-0.144C0.312,-0.144 0.328,-0.148 0.341,-0.155C0.354,-0.162 0.364,-0.173 0.371,-0.186C0.378,-0.2 0.382,-0.216 0.382,-0.235C0.382,-0.254 0.378,-0.27 0.371,-0.283C0.364,-0.297 0.353,-0.308 0.34,-0.315C0.327,-0.322 0.312,-0.326 0.295,-0.326C0.278,-0.326 0.263,-0.322 0.25,-0.315C0.237,-0.308 0.227,-0.297 0.219,-0.284C0.212,-0.27 0.208,-0.254 0.208,-0.235C0.208,-0.216 0.212,-0.2 0.219,-0.187C0.227,-0.173 0.237,-0.162 0.25,-0.155C0.263,-0.148 0.278,-0.144 0.295,-0.144Z"></path>
                </g>
                <g transform="matrix(301.967503,0,0,301.967503,1262.89378,270.061017)">
                    <path style="fill:rgb(51,51,51);fill-rule:nonzero;" d="M0.349,0.01C0.319,0.01 0.293,0.005 0.271,-0.005C0.249,-0.015 0.231,-0.029 0.216,-0.046L0.216,-0L0.046,-0L0.046,-0.668L0.226,-0.668L0.226,-0.435C0.24,-0.449 0.257,-0.46 0.278,-0.468C0.299,-0.476 0.322,-0.48 0.349,-0.48C0.391,-0.48 0.429,-0.47 0.463,-0.451C0.497,-0.432 0.524,-0.404 0.544,-0.367C0.564,-0.331 0.574,-0.287 0.574,-0.235C0.574,-0.184 0.564,-0.14 0.544,-0.103C0.524,-0.066 0.497,-0.038 0.463,-0.019C0.429,0 0.391,0.01 0.349,0.01ZM0.305,-0.144C0.322,-0.144 0.338,-0.148 0.351,-0.155C0.364,-0.162 0.374,-0.173 0.381,-0.186C0.388,-0.2 0.392,-0.216 0.392,-0.235C0.392,-0.254 0.388,-0.27 0.381,-0.283C0.374,-0.297 0.363,-0.308 0.35,-0.315C0.337,-0.322 0.322,-0.326 0.305,-0.326C0.288,-0.326 0.273,-0.322 0.26,-0.315C0.247,-0.308 0.237,-0.297 0.229,-0.284C0.222,-0.27 0.218,-0.254 0.218,-0.235C0.218,-0.216 0.222,-0.2 0.229,-0.187C0.237,-0.173 0.247,-0.162 0.26,-0.155C0.273,-0.148 0.288,-0.144 0.305,-0.144Z"></path>
                </g>
                <g transform="matrix(301.967503,0,0,301.967503,1449.811665,270.061017)">
                    <path style="fill:rgb(51,51,51);fill-rule:nonzero;" d="M0.295,0.01C0.243,0.01 0.197,-0 0.156,-0.021C0.116,-0.041 0.084,-0.07 0.061,-0.106C0.038,-0.143 0.026,-0.186 0.026,-0.235C0.026,-0.284 0.038,-0.326 0.061,-0.363C0.084,-0.4 0.116,-0.428 0.156,-0.449C0.197,-0.47 0.243,-0.48 0.295,-0.48C0.347,-0.48 0.393,-0.47 0.433,-0.449C0.474,-0.428 0.506,-0.4 0.529,-0.363C0.552,-0.326 0.564,-0.284 0.564,-0.235C0.564,-0.186 0.552,-0.143 0.529,-0.106C0.506,-0.07 0.474,-0.041 0.433,-0.021C0.393,-0 0.347,0.01 0.295,0.01ZM0.295,-0.144C0.312,-0.144 0.328,-0.148 0.341,-0.155C0.354,-0.162 0.364,-0.173 0.371,-0.186C0.378,-0.2 0.382,-0.216 0.382,-0.235C0.382,-0.254 0.378,-0.27 0.371,-0.283C0.364,-0.297 0.354,-0.308 0.341,-0.315C0.328,-0.322 0.312,-0.326 0.295,-0.326C0.278,-0.326 0.263,-0.322 0.25,-0.315C0.237,-0.308 0.226,-0.297 0.219,-0.284C0.212,-0.27 0.208,-0.254 0.208,-0.235C0.208,-0.216 0.212,-0.2 0.219,-0.187C0.226,-0.173 0.237,-0.162 0.25,-0.155C0.263,-0.148 0.279,-0.144 0.295,-0.144Z"></path>
                </g>
                <g transform="matrix(301.967503,0,0,301.967503,1615.761916,270.061017)">
                    <path style="fill:rgb(51,51,51);fill-rule:nonzero;" d="M0.002,-0L0.159,-0.243L0.012,-0.47L0.208,-0.47L0.271,-0.353L0.334,-0.47L0.53,-0.47L0.383,-0.243L0.54,-0L0.344,-0L0.271,-0.124L0.198,-0L0.002,-0Z"></path>
                </g>
            </g>
            <g transform="matrix(1.009477,0,0,1,-3.626433,0)">
                <g transform="matrix(301.967503,0,0,301.967503,382.658508,473.514299)">
                    <path style="fill:rgb(121,121,95);fill-rule:nonzero;" d="M0.235,0.01C0.198,0.01 0.163,0.005 0.128,-0.005C0.092,-0.014 0.059,-0.029 0.026,-0.048L0.082,-0.171C0.115,-0.152 0.145,-0.139 0.173,-0.13C0.2,-0.121 0.222,-0.117 0.238,-0.117C0.253,-0.117 0.265,-0.119 0.272,-0.123C0.279,-0.127 0.282,-0.132 0.282,-0.138C0.282,-0.144 0.279,-0.149 0.273,-0.152C0.266,-0.156 0.255,-0.159 0.24,-0.162L0.195,-0.17C0.143,-0.179 0.104,-0.195 0.079,-0.217C0.054,-0.24 0.041,-0.27 0.041,-0.309C0.041,-0.34 0.048,-0.369 0.063,-0.395C0.078,-0.42 0.101,-0.441 0.132,-0.457C0.163,-0.472 0.204,-0.48 0.255,-0.48C0.289,-0.48 0.322,-0.476 0.355,-0.467C0.388,-0.458 0.419,-0.446 0.449,-0.43L0.396,-0.313C0.374,-0.323 0.351,-0.332 0.326,-0.341C0.301,-0.349 0.28,-0.353 0.262,-0.353C0.249,-0.353 0.24,-0.351 0.233,-0.349C0.226,-0.346 0.223,-0.341 0.223,-0.335C0.223,-0.331 0.225,-0.328 0.23,-0.325C0.235,-0.322 0.245,-0.319 0.26,-0.316L0.305,-0.308C0.357,-0.299 0.397,-0.282 0.423,-0.257C0.451,-0.232 0.464,-0.2 0.464,-0.161C0.464,-0.112 0.445,-0.071 0.407,-0.038C0.368,-0.006 0.311,0.01 0.235,0.01Z"></path>
                </g>
                <g transform="matrix(301.967503,0,0,301.967503,536.359968,473.514299)">
                    <path style="fill:rgb(121,121,95);fill-rule:nonzero;" d="M0.287,0.006C0.222,0.006 0.175,-0.008 0.146,-0.036C0.118,-0.063 0.104,-0.105 0.104,-0.161L0.104,-0.326L0.016,-0.326L0.016,-0.47L0.104,-0.47L0.104,-0.604L0.284,-0.604L0.284,-0.47L0.392,-0.47L0.392,-0.326L0.284,-0.326L0.284,-0.179C0.284,-0.167 0.288,-0.157 0.294,-0.149C0.301,-0.142 0.314,-0.138 0.331,-0.138C0.34,-0.138 0.35,-0.138 0.362,-0.139C0.374,-0.14 0.384,-0.141 0.392,-0.142L0.392,-0.006C0.379,-0.003 0.363,0 0.344,0.003C0.325,0.005 0.306,0.006 0.287,0.006Z"></path>
                </g>
                <g transform="matrix(301.967503,0,0,301.967503,670.131572,473.514299)">
                    <path style="fill:rgb(121,121,95);fill-rule:nonzero;" d="M0.295,0.01C0.243,0.01 0.197,-0 0.156,-0.021C0.116,-0.041 0.084,-0.07 0.061,-0.106C0.038,-0.143 0.026,-0.186 0.026,-0.235C0.026,-0.284 0.038,-0.326 0.061,-0.363C0.084,-0.4 0.116,-0.428 0.156,-0.449C0.197,-0.47 0.243,-0.48 0.295,-0.48C0.347,-0.48 0.393,-0.47 0.433,-0.449C0.474,-0.428 0.506,-0.4 0.529,-0.363C0.552,-0.326 0.564,-0.284 0.564,-0.235C0.564,-0.186 0.552,-0.143 0.529,-0.106C0.506,-0.07 0.474,-0.041 0.433,-0.021C0.393,-0 0.347,0.01 0.295,0.01ZM0.295,-0.144C0.312,-0.144 0.328,-0.148 0.341,-0.155C0.354,-0.162 0.364,-0.173 0.371,-0.186C0.378,-0.2 0.382,-0.216 0.382,-0.235C0.382,-0.254 0.378,-0.27 0.371,-0.283C0.364,-0.297 0.354,-0.308 0.341,-0.315C0.328,-0.322 0.312,-0.326 0.295,-0.326C0.278,-0.326 0.263,-0.322 0.25,-0.315C0.237,-0.308 0.226,-0.297 0.219,-0.284C0.212,-0.27 0.208,-0.254 0.208,-0.235C0.208,-0.216 0.212,-0.2 0.219,-0.187C0.226,-0.173 0.237,-0.162 0.25,-0.155C0.263,-0.148 0.279,-0.144 0.295,-0.144Z"></path>
                </g>
                <g transform="matrix(301.967503,0,0,301.967503,854.029781,473.514299)">
                    <path style="fill:rgb(121,121,95);fill-rule:nonzero;" d="M0.046,-0L0.046,-0.47L0.216,-0.47L0.216,-0.41C0.23,-0.435 0.247,-0.453 0.267,-0.462C0.286,-0.471 0.308,-0.476 0.331,-0.476C0.34,-0.476 0.347,-0.476 0.353,-0.475C0.359,-0.474 0.364,-0.472 0.368,-0.47L0.368,-0.298C0.358,-0.3 0.348,-0.302 0.338,-0.303C0.327,-0.305 0.317,-0.306 0.306,-0.306C0.283,-0.306 0.264,-0.3 0.249,-0.288C0.234,-0.275 0.226,-0.255 0.226,-0.227L0.226,-0L0.046,-0Z"></path>
                </g>
                <g transform="matrix(301.967503,0,0,301.967503,972.155772,473.514299)">
                    <path style="fill:rgb(121,121,95);fill-rule:nonzero;" d="M0.304,0.01C0.255,0.01 0.209,0.001 0.167,-0.016C0.124,-0.033 0.09,-0.06 0.065,-0.097C0.039,-0.133 0.026,-0.179 0.026,-0.235C0.026,-0.285 0.037,-0.328 0.06,-0.365C0.084,-0.402 0.115,-0.43 0.153,-0.45C0.193,-0.47 0.236,-0.48 0.285,-0.48C0.334,-0.48 0.377,-0.471 0.414,-0.454C0.451,-0.437 0.481,-0.413 0.502,-0.382C0.523,-0.351 0.534,-0.315 0.534,-0.274C0.534,-0.261 0.532,-0.246 0.528,-0.231C0.525,-0.216 0.52,-0.202 0.515,-0.191L0.208,-0.191C0.211,-0.178 0.218,-0.167 0.228,-0.158C0.237,-0.148 0.25,-0.142 0.267,-0.138C0.283,-0.133 0.302,-0.131 0.324,-0.131C0.349,-0.131 0.374,-0.135 0.398,-0.142C0.422,-0.149 0.444,-0.158 0.465,-0.169L0.514,-0.049C0.484,-0.03 0.451,-0.015 0.415,-0.005C0.379,0.005 0.342,0.01 0.304,0.01ZM0.208,-0.297L0.35,-0.297C0.351,-0.299 0.351,-0.301 0.352,-0.302C0.352,-0.304 0.352,-0.306 0.352,-0.307C0.352,-0.315 0.35,-0.322 0.345,-0.329C0.34,-0.335 0.334,-0.34 0.325,-0.344C0.316,-0.347 0.304,-0.349 0.289,-0.349C0.274,-0.349 0.26,-0.347 0.249,-0.342C0.238,-0.337 0.229,-0.331 0.222,-0.323C0.215,-0.315 0.211,-0.306 0.208,-0.297Z"></path>
                </g>
                <g transform="matrix(301.967503,0,0,301.967503,1141.257574,473.514299)">
                </g>
            </g>
        </g>
    </g>
</svg>
