<svg width="184" height="32" viewBox="0 0 184 32" fill="none" xmlns="http://www.w3.org/2000/svg">
<g clip-path="url(#clip0_6201_8759)">
<path d="M44.0234 26.1906L52.328 6.02539H54.3091L62.5555 26.1906H59.5832L52.7652 9.13446H53.8138L46.9658 26.1906H44.0234ZM47.9863 21.629V19.2459H58.6217V21.629H47.9863Z" fill="#151D47"/>
<path d="M65.6445 26.1878V12.3856H68.2671V26.1878H65.6445ZM75.4059 26.1878V18.1394C75.4059 17.0929 75.0803 16.2317 74.4299 15.5533C73.7786 14.8749 72.9295 14.5358 71.8801 14.5358C71.1812 14.5358 70.5592 14.6913 70.0153 15.0006C69.4716 15.3108 69.0434 15.7378 68.7332 16.2792C68.4222 16.8222 68.2671 17.4417 68.2671 18.1394L67.1893 17.5288C67.1893 16.483 67.4219 15.5533 67.8881 14.7397C68.3543 13.926 69.0055 13.2822 69.8408 12.807C70.6754 12.3333 71.6182 12.0957 72.6669 12.0957C73.7155 12.0957 74.643 12.3568 75.4493 12.8804C76.2557 13.4032 76.8923 14.0856 77.3585 14.9284C77.8246 15.771 78.0573 16.6677 78.0573 17.616V26.188H75.4058L75.4059 26.1878Z" fill="#151D47"/>
<path d="M81.9023 26.1894V5.44336H84.5249V26.1894H81.9023ZM90.7603 26.1894L84.2913 19.1287L90.6731 12.3871H93.8781L86.7393 19.8256L86.8556 18.3151L94.1406 26.1894H90.7603Z" fill="#151D47"/>
<path d="M97.5205 9.62609C97.0349 9.62609 96.6366 9.46662 96.3255 9.14676C96.0153 8.82689 95.8594 8.42569 95.8594 7.94076C95.8594 7.47596 96.0153 7.08356 96.3255 6.76449C96.6366 6.44462 97.0349 6.28516 97.5205 6.28516C98.006 6.28516 98.4044 6.44462 98.7154 6.76449C99.0256 7.08356 99.1815 7.47582 99.1815 7.94076C99.1815 8.42569 99.0256 8.82702 98.7154 9.14676C98.4044 9.46662 98.006 9.62609 97.5205 9.62609ZM96.18 26.1885V12.3862H98.8316V26.1885H96.18Z" fill="#151D47"/>
<path d="M116.955 17.0649C116.411 16.3456 115.703 15.7497 114.834 15.2751C115.429 14.8851 115.926 14.4403 116.3 13.9269C116.892 13.1132 117.189 12.1739 117.189 11.1088C117.189 10.1984 116.965 9.34601 116.518 8.55174C116.071 7.75734 115.392 7.10881 114.479 6.60454C113.565 6.10108 112.419 5.84961 111.04 5.84961H103.289V26.1888H111.303C112.759 26.1888 113.988 25.9229 114.989 25.3896C115.989 24.8571 116.747 24.1545 117.261 23.2828C117.776 22.4111 118.034 21.4524 118.034 20.4067C118.034 19.1281 117.674 18.0147 116.955 17.0649ZM110.953 8.75481C111.827 8.75481 112.526 8.97801 113.051 9.42348C113.576 9.86894 113.838 10.5272 113.838 11.3989C113.838 12.2707 113.576 12.9296 113.051 13.3752C112.526 13.8207 111.827 14.0431 110.953 14.0431H106.641V8.75481H110.953ZM113.837 22.3241C113.274 22.9639 112.478 23.2828 111.448 23.2828H106.64V16.9488H111.448C112.128 16.9488 112.711 17.0939 113.197 17.3847C113.682 17.6755 114.051 18.0631 114.304 18.5472C114.556 19.0313 114.682 19.5543 114.682 20.1157C114.682 20.9488 114.4 21.6851 113.837 22.324V22.3241Z" fill="#151D47"/>
<path d="M127.012 26.4803C125.827 26.4803 124.773 26.2185 123.851 25.6957C122.927 25.1729 122.209 24.451 121.694 23.5309C121.179 22.6109 120.922 21.5506 120.922 20.3494V12.2422H124.127V20.2035C124.127 20.8819 124.238 21.4579 124.462 21.9325C124.685 22.4078 125.016 22.7711 125.453 23.0225C125.89 23.2746 126.409 23.4003 127.012 23.4003C127.944 23.4003 128.658 23.1239 129.154 22.5722C129.649 22.0195 129.896 21.2309 129.896 20.2037V12.2423H133.102V20.3495C133.102 21.5693 132.844 22.6399 132.33 23.5601C131.815 24.4802 131.101 25.1971 130.188 25.7103C129.275 26.2235 128.216 26.4805 127.012 26.4805L127.012 26.4803Z" fill="#151D47"/>
<path d="M142.485 26.4792C141.222 26.4792 140.081 26.1593 139.061 25.5197C138.041 24.8808 137.235 24.014 136.643 22.92C136.05 21.8252 135.754 20.5997 135.754 19.2438C135.754 17.8686 136.05 16.6336 136.643 15.5396C137.235 14.4456 138.041 13.5738 139.061 12.9245C140.081 12.2752 141.222 11.9505 142.485 11.9505C143.553 11.9505 144.5 12.1785 145.326 12.6337C146.151 13.0889 146.807 13.7141 147.293 14.5076C147.778 15.3028 148.021 16.2034 148.021 17.2097V21.2202C148.021 22.2273 147.783 23.128 147.307 23.9224C146.831 24.7168 146.175 25.341 145.341 25.7962C144.505 26.2514 143.553 26.4794 142.485 26.4794V26.4792ZM143.009 23.4573C143.806 23.4573 144.5 23.2785 145.093 22.92C145.685 22.5614 146.146 22.0628 146.477 21.423C146.807 20.7841 146.972 20.0478 146.972 19.2148C146.972 18.3817 146.807 17.6454 146.477 17.0065C146.146 16.3676 145.685 15.8689 145.093 15.5104C144.5 15.1518 143.806 14.9722 143.009 14.9722C142.232 14.9722 141.547 15.1518 140.955 15.5104C140.362 15.8689 139.896 16.3676 139.556 17.0065C139.217 17.6454 139.046 18.3825 139.046 19.2148C139.046 20.047 139.217 20.7841 139.556 21.423C139.896 22.0628 140.362 22.5614 140.955 22.92C141.547 23.2785 142.232 23.4573 143.009 23.4573ZM149.973 26.1884H146.768V22.4397L147.322 19.0408L146.768 15.67V5.26758H149.973V26.1884Z" fill="#151D47"/>
<path d="M159.677 26.4792C158.413 26.4792 157.272 26.1593 156.253 25.5197C155.233 24.8808 154.426 24.014 153.834 22.92C153.242 21.8252 152.945 20.5997 152.945 19.2438C152.945 17.8686 153.242 16.6336 153.834 15.5396C154.426 14.4456 155.233 13.5738 156.253 12.9245C157.273 12.2752 158.413 11.9505 159.677 11.9505C160.745 11.9505 161.692 12.1785 162.517 12.6337C163.343 13.0889 163.998 13.7141 164.485 14.5076C164.97 15.3028 165.213 16.2034 165.213 17.2097V21.2202C165.213 22.2273 164.975 23.128 164.499 23.9224C164.023 24.7168 163.367 25.341 162.532 25.7962C161.697 26.2514 160.745 26.4794 159.677 26.4794V26.4792ZM160.201 23.4573C160.997 23.4573 161.692 23.2785 162.285 22.92C162.877 22.5614 163.338 22.0628 163.669 21.423C163.998 20.7841 164.164 20.0478 164.164 19.2148C164.164 18.3817 163.998 17.6454 163.669 17.0065C163.338 16.3676 162.877 15.8689 162.285 15.5104C161.692 15.1518 160.997 14.9722 160.201 14.9722C159.424 14.9722 158.739 15.1518 158.147 15.5104C157.554 15.8689 157.087 16.3676 156.748 17.0065C156.408 17.6454 156.238 18.3825 156.238 19.2148C156.238 20.047 156.408 20.7841 156.748 21.423C157.088 22.0628 157.554 22.5614 158.147 22.92C158.739 23.2785 159.424 23.4573 160.201 23.4573ZM167.165 26.1884H163.96V22.4397L164.514 19.0408L163.96 15.67V5.26758H167.165V26.1884Z" fill="#151D47"/>
<path d="M175.528 26.3345L169.555 12.2422H173.081L177.16 22.5866H176.14L180.453 12.2422H184.008L177.509 26.3345H175.528ZM171.361 32.0005L175.703 23.0805L177.509 26.3345L174.916 32.0005H171.361Z" fill="#151D47"/>
<path d="M26.0986 19.6671L23.8849 15.2739H25.2915L23.0576 19.6671H20.0586L23.3889 13.7891H25.7674L29.0977 19.6671H26.0986Z" fill="#151D47"/>
<path d="M15.0627 19.6651L12.8497 15.2719H14.2563L12.0224 19.6651H9.02344L12.3538 13.7871H14.7323L18.0616 19.6651H15.0627Z" fill="#151D47"/>
<path d="M20.7236 5.87605L18.5099 1.48285H19.9165L17.6826 5.87605H14.6836L18.0138 -0.00195312H20.3923L23.7226 5.87605H20.7236Z" fill="#0059DE"/>
<path d="M36.7494 18.0233C36.0399 18.0233 35.5581 17.8153 35.3047 17.3981C35.0517 16.9808 35.0527 16.4061 35.0527 15.4835V12.1096C35.0527 9.99321 34.8311 8.56481 33.8549 7.46534C32.8796 6.36574 31.3647 5.81641 29.3118 5.81641H27.1826H10.6393H8.51006C6.45717 5.81641 4.94211 6.36574 3.96702 7.46534C2.99073 8.56481 2.76915 9.99321 2.76915 12.1096V15.4835C2.76915 16.4061 2.77022 16.9808 2.51722 17.3981C2.26382 17.8153 1.78202 18.0233 1.0725 18.0233H0.0078125V21.2861H1.0721C1.78162 21.2861 2.26342 21.4941 2.51682 21.9115C2.76982 22.3287 2.76875 22.9035 2.76875 23.8261V26.1177H6.20484V24.6647C6.20484 23.558 6.26167 22.6255 6.07152 21.8927C5.8815 21.1591 5.48836 20.5527 4.89291 20.0727C4.70998 19.9252 4.2711 19.6556 4.2699 19.6548C4.2711 19.654 4.70998 19.3845 4.89291 19.2369C5.48836 18.7569 5.8815 18.1504 6.07152 17.4169C6.26154 16.6841 6.20484 15.7516 6.20484 14.6449V12.5967C6.22316 10.6484 6.60694 9.11427 8.81387 9.11427H29.0075C31.2144 9.11427 31.5982 10.6484 31.6165 12.5967V14.6449C31.6165 15.7516 31.5597 16.6841 31.7498 17.4169C31.9398 18.1505 32.333 18.7569 32.9284 19.2369C33.1114 19.3844 33.5502 19.654 33.5514 19.6548C33.5502 19.6556 33.1114 19.9251 32.9284 20.0727C32.333 20.5527 31.9398 21.1592 31.7498 21.8927C31.5598 22.6255 31.6165 23.558 31.6165 24.6647V26.1177H35.0526V23.8261C35.0526 22.9035 35.0515 22.3288 35.3045 21.9115C35.5579 21.4941 36.0397 21.2861 36.7492 21.2861H37.8135V18.0233H36.7492H36.7494Z" fill="#0059DE"/>
</g>
<defs>
<clipPath id="clip0_6201_8759">
<rect width="184" height="32" fill="white"/>
</clipPath>
</defs>
</svg>
